<svg width="24" height="24" viewBox="0 0 24 24" fill="none" xmlns="http://www.w3.org/2000/svg">
<path d="M11.2923 18.8077H12.6577V17.5961C13.4333 17.491 14.1355 17.1996 14.7644 16.7221C15.3932 16.2445 15.7077 15.5205 15.7077 14.55C15.7077 13.85 15.5012 13.2308 15.0884 12.6923C14.6756 12.1538 13.8692 11.6679 12.6692 11.2346C11.6179 10.8756 10.9198 10.5647 10.575 10.3019C10.2301 10.0391 10.0577 9.67178 10.0577 9.19998C10.0577 8.72818 10.2343 8.34484 10.5875 8.04998C10.9407 7.75509 11.4282 7.60765 12.05 7.60765C12.5705 7.60765 12.9904 7.73041 13.3096 7.97593C13.6288 8.22144 13.8743 8.52945 14.0461 8.89995L15.2807 8.40383C15.0717 7.87178 14.731 7.41633 14.2586 7.03748C13.7862 6.65864 13.2692 6.44743 12.7077 6.40383V5.1923H11.3423V6.40383C10.4897 6.56793 9.83493 6.91376 9.37788 7.44133C8.92083 7.96889 8.6923 8.55511 8.6923 9.19998C8.6923 9.95126 8.91987 10.5557 9.375 11.0134C9.83012 11.4711 10.5718 11.8846 11.6 12.2538C12.6628 12.6436 13.3888 12.9932 13.7779 13.3029C14.167 13.6125 14.3615 14.0282 14.3615 14.55C14.3615 15.1769 14.1352 15.6324 13.6827 15.9163C13.2301 16.2003 12.7192 16.3423 12.15 16.3423C11.5872 16.3423 11.0836 16.1731 10.6394 15.8346C10.1952 15.4962 9.85382 15.0013 9.61535 14.35L8.35 14.8654C8.60897 15.6077 8.98108 16.1974 9.46635 16.6346C9.9516 17.0718 10.5603 17.3756 11.2923 17.5461V18.8077ZM12 21.5C10.6872 21.5 9.45287 21.2503 8.2971 20.7509C7.14133 20.2516 6.13589 19.5743 5.28078 18.7192C4.42564 17.8641 3.7484 16.8586 3.24905 15.7029C2.74968 14.5471 2.5 13.3128 2.5 12C2.5 10.6872 2.74968 9.45287 3.24905 8.2971C3.7484 7.14133 4.42564 6.13589 5.28078 5.28078C6.13589 4.42564 7.14133 3.7484 8.2971 3.24905C9.45287 2.74968 10.6872 2.5 12 2.5C13.3128 2.5 14.5471 2.74968 15.7029 3.24905C16.8586 3.7484 17.8641 4.42564 18.7192 5.28078C19.5743 6.13589 20.2516 7.14133 20.7509 8.2971C21.2503 9.45287 21.5 10.6872 21.5 12C21.5 13.3128 21.2503 14.5471 20.7509 15.7029C20.2516 16.8586 19.5743 17.8641 18.7192 18.7192C17.8641 19.5743 16.8586 20.2516 15.7029 20.7509C14.5471 21.2503 13.3128 21.5 12 21.5ZM12 20C14.2333 20 16.125 19.225 17.675 17.675C19.225 16.125 20 14.2333 20 12C20 9.76664 19.225 7.87498 17.675 6.32498C16.125 4.77498 14.2333 3.99998 12 3.99998C9.76664 3.99998 7.87498 4.77498 6.32498 6.32498C4.77498 7.87498 3.99998 9.76664 3.99998 12C3.99998 14.2333 4.77498 16.125 6.32498 17.675C7.87498 19.225 9.76664 20 12 20Z" fill="#444444"/>
</svg>
