<svg width="53" height="53" viewBox="0 0 53 53" fill="none" xmlns="http://www.w3.org/2000/svg">
<rect x="0.5" y="0.5" width="52" height="52" rx="7.5" stroke="#EF2C2E"/>
<path d="M24.9063 43.1249V24.5748L19.4619 30.0192L17.1347 27.624L26.5624 18.1963L35.9902 27.624L33.663 30.0192L28.2186 24.5748V43.1249H24.9063ZM10 19.9799V13.992C10 12.8765 10.3865 11.9323 11.1594 11.1594C11.9323 10.3865 12.8765 10 13.992 10H39.1329C40.2484 10 41.1926 10.3865 41.9655 11.1594C42.7384 11.9323 43.1249 12.8765 43.1249 13.992V19.9799H39.8124V13.992C39.8124 13.8221 39.7417 13.6664 39.6001 13.5248C39.4585 13.3832 39.3028 13.3124 39.1329 13.3124H13.992C13.8221 13.3124 13.6664 13.3832 13.5248 13.5248C13.3832 13.6664 13.3124 13.8221 13.3124 13.992V19.9799H10Z" fill="#003087"/>
</svg>
