<svg width="17" height="17" viewBox="0 0 17 17" fill="none" xmlns="http://www.w3.org/2000/svg">
<path d="M1.49997 15.5H2.7615L12.9981 5.2634L11.7366 4.00188L1.49997 14.2385V15.5ZM0 17V13.6154L13.1904 0.430775C13.3416 0.293425 13.5086 0.187292 13.6913 0.112375C13.874 0.0374582 14.0656 0 14.2661 0C14.4666 0 14.6608 0.0355838 14.8488 0.10675C15.0368 0.177901 15.2032 0.291034 15.348 0.44615L16.5692 1.68268C16.7243 1.82754 16.8349 1.99424 16.9009 2.18278C16.9669 2.37129 17 2.55981 17 2.74833C17 2.94941 16.9656 3.14131 16.8969 3.32403C16.8283 3.50676 16.719 3.67373 16.5692 3.82495L3.38458 17H0ZM12.3563 4.6437L11.7366 4.00188L12.9981 5.2634L12.3563 4.6437Z" fill="#444444"/>
</svg>
