<svg width="21" height="15" viewBox="0 0 21 15" fill="none" xmlns="http://www.w3.org/2000/svg">
<path d="M10.5023 11.3432C11.6395 11.3432 12.6055 10.9452 13.4 10.1491C14.1946 9.35299 14.5919 8.38631 14.5919 7.24904C14.5919 6.11179 14.1939 5.14587 13.3978 4.35129C12.6017 3.55671 11.635 3.15942 10.4977 3.15942C9.36046 3.15942 8.39455 3.55746 7.59997 4.35355C6.80539 5.14965 6.4081 6.11634 6.4081 7.25361C6.4081 8.39086 6.80614 9.35678 7.60222 10.1514C8.39833 10.9459 9.36501 11.3432 10.5023 11.3432ZM10.5 9.96126C9.74724 9.96126 9.10739 9.69779 8.58046 9.17086C8.05353 8.64393 7.79006 8.00408 7.79006 7.25132C7.79006 6.49856 8.05353 5.85872 8.58046 5.33178C9.10739 4.80485 9.74724 4.54139 10.5 4.54139C11.2528 4.54139 11.8926 4.80485 12.4195 5.33178C12.9465 5.85872 13.2099 6.49856 13.2099 7.25132C13.2099 8.00408 12.9465 8.64393 12.4195 9.17086C11.8926 9.69779 11.2528 9.96126 10.5 9.96126ZM10.5014 14.2771C8.1933 14.2771 6.09026 13.6404 4.19227 12.3672C2.2943 11.0939 0.896872 9.38864 0 7.25132C0.896872 5.114 2.29384 3.40872 4.19092 2.13547C6.08797 0.862213 8.19054 0.225586 10.4986 0.225586C12.8067 0.225586 14.9097 0.862213 16.8077 2.13547C18.7057 3.40872 20.1031 5.114 21 7.25132C20.1031 9.38864 18.7062 11.0939 16.8091 12.3672C14.912 13.6404 12.8095 14.2771 10.5014 14.2771ZM10.5 12.7716C12.3903 12.7716 14.1258 12.2739 15.7066 11.2786C17.2874 10.2833 18.496 8.94085 19.3324 7.25132C18.496 5.56179 17.2874 4.21937 15.7066 3.22406C14.1258 2.22874 12.3903 1.73108 10.5 1.73108C8.60974 1.73108 6.87421 2.22874 5.29341 3.22406C3.71261 4.21937 2.50401 5.56179 1.66761 7.25132C2.50401 8.94085 3.71261 10.2833 5.29341 11.2786C6.87421 12.2739 8.60974 12.7716 10.5 12.7716Z" fill="#003087"/>
</svg>
