<svg width="17" height="17" viewBox="0 0 17 17" fill="none" xmlns="http://www.w3.org/2000/svg">
<path d="M6.50065 15.1038H10.5007C13.834 15.1038 15.1673 13.7705 15.1673 10.4372V6.43717C15.1673 3.10384 13.834 1.77051 10.5007 1.77051H6.50065C3.16732 1.77051 1.83398 3.10384 1.83398 6.43717V10.4372C1.83398 13.7705 3.16732 15.1038 6.50065 15.1038Z" stroke="white" strokeWidth="1.5" strokeLinecap="round" strokeLinejoin="round"/>
<path d="M6.49935 7.10368C7.23573 7.10368 7.83268 6.50672 7.83268 5.77035C7.83268 5.03397 7.23573 4.43701 6.49935 4.43701C5.76297 4.43701 5.16602 5.03397 5.16602 5.77035C5.16602 6.50672 5.76297 7.10368 6.49935 7.10368Z" stroke="white" strokeWidth="1.5" strokeLinecap="round" strokeLinejoin="round"/>
<path d="M2.2793 13.0705L5.56596 10.8639C6.09263 10.5105 6.85263 10.5505 7.32596 10.9572L7.54596 11.1505C8.06596 11.5972 8.90596 11.5972 9.42596 11.1505L12.1993 8.77055C12.7193 8.32388 13.5593 8.32388 14.0793 8.77055L15.166 9.70388" stroke="white" strokeWidth="1.5" strokeLinecap="round" strokeLinejoin="round"/>
</svg>
