<svg width="24" height="24" viewBox="0 0 24 24" fill="none" xmlns="http://www.w3.org/2000/svg">
<path d="M7.11446 17.1153C6.86381 17.1153 6.65371 17.0305 6.48416 16.861C6.31461 16.6914 6.22983 16.4813 6.22983 16.2307V14.7307H18.6048L18.9221 15.0481V5.99998H20.4221C20.6727 5.99998 20.8828 6.08475 21.0524 6.2543C21.2219 6.42385 21.3067 6.63394 21.3067 6.88457V20.6537L17.7683 17.1153H7.11446ZM2.69141 16.2691V3.38463C2.69141 3.13398 2.77618 2.92388 2.94573 2.75433C3.11528 2.58478 3.32538 2.5 3.57603 2.5H16.0375C16.2882 2.5 16.4983 2.58478 16.6678 2.75433C16.8374 2.92388 16.9221 3.13398 16.9221 3.38463V11.8461C16.9221 12.0968 16.8374 12.3069 16.6678 12.4764C16.4983 12.646 16.2882 12.7307 16.0375 12.7307H6.22983L2.69141 16.2691ZM15.4222 11.2308V3.99998H4.19138V11.9231L4.88373 11.2308H15.4222Z" fill="#444444"/>
</svg>
