<svg width="59" height="58" viewBox="0 0 59 58" fill="none" xmlns="http://www.w3.org/2000/svg">
<path d="M10.7383 47.2001C13.5362 45.2501 16.4576 43.7063 19.5023 42.5688C22.5471 41.4313 25.8799 40.8626 29.5008 40.8626C33.1216 40.8626 36.4544 41.4313 39.4992 42.5688C42.544 43.7063 45.4654 45.2501 48.2633 47.2001C50.5126 44.9793 52.3367 42.3251 53.7357 39.2376C55.1346 36.1501 55.8341 32.7376 55.8341 29.0001C55.8341 21.7959 53.2694 15.6616 48.1398 10.597C43.0103 5.53239 36.7973 3.0001 29.5008 3.0001C22.2043 3.0001 15.9912 5.53239 10.8617 10.597C5.73221 15.6616 3.16745 21.7959 3.16745 29.0001C3.16745 32.7376 3.86693 36.1501 5.26589 39.2376C6.66484 42.3251 8.48898 44.9793 10.7383 47.2001ZM29.5033 30.1376C26.8683 30.1376 24.6456 29.2447 22.8352 27.4588C21.0247 25.6729 20.1195 23.4792 20.1195 20.8775C20.1195 18.2759 21.0239 16.0813 22.8327 14.2938C24.6415 12.5063 26.8633 11.6126 29.4983 11.6126C32.1333 11.6126 34.356 12.5055 36.1664 14.2914C37.9768 16.0773 38.882 18.271 38.882 20.8727C38.882 23.4743 37.9776 25.6688 36.1689 27.4563C34.3601 29.2438 32.1382 30.1376 29.5033 30.1376ZM29.5008 57.2751C25.4959 57.2751 21.7516 56.5438 18.268 55.0813C14.7843 53.6188 11.7532 51.6147 9.17474 49.0688C6.59627 46.523 4.56641 43.5303 3.08516 40.0907C1.60391 36.6511 0.863281 32.9543 0.863281 29.0001C0.863281 25.0459 1.60391 21.3491 3.08516 17.9095C4.56641 14.4699 6.59627 11.4772 9.17474 8.93135C11.7532 6.38551 14.7843 4.38135 18.268 2.91885C21.7516 1.45635 25.4959 0.725098 29.5008 0.725098C33.5056 0.725098 37.2499 1.45635 40.7336 2.91885C44.2173 4.38135 47.2484 6.38551 49.8268 8.93135C52.4053 11.4772 54.4352 14.4699 55.9164 17.9095C57.3977 21.3491 58.1383 25.0459 58.1383 29.0001C58.1383 32.9543 57.3977 36.6511 55.9164 40.0907C54.4352 43.5303 52.4053 46.523 49.8268 49.0688C47.2484 51.6147 44.2173 53.6188 40.7336 55.0813C37.2499 56.5438 33.5056 57.2751 29.5008 57.2751ZM29.5008 55.0001C32.573 55.0001 35.6315 54.4449 38.6763 53.3345C41.7211 52.2241 44.3133 50.7209 46.4529 48.8251C44.3133 47.0918 41.8034 45.7105 38.9232 44.6813C36.043 43.6522 32.9022 43.1376 29.5008 43.1376C26.0994 43.1376 22.9449 43.6386 20.0372 44.6407C17.1296 45.6428 14.6334 47.0376 12.5487 48.8251C14.6883 50.7209 17.2805 52.2241 20.3253 53.3345C23.3701 54.4449 26.4286 55.0001 29.5008 55.0001ZM29.5008 27.8626C31.4758 27.8626 33.149 27.1855 34.5206 25.8313C35.8921 24.4772 36.5779 22.8251 36.5779 20.8751C36.5779 18.9251 35.8921 17.273 34.5206 15.9188C33.149 14.5647 31.4758 13.8876 29.5008 13.8876C27.5258 13.8876 25.8525 14.5647 24.481 15.9188C23.1095 17.273 22.4237 18.9251 22.4237 20.8751C22.4237 22.8251 23.1095 24.4772 24.481 25.8313C25.8525 27.1855 27.5258 27.8626 29.5008 27.8626Z" fill="#003087"/>
</svg>
