<svg width="53" height="53" viewBox="0 0 53 53" fill="none" xmlns="http://www.w3.org/2000/svg">
<path d="M37.8571 16.6758H41.022V11.6319H44.978V16.6758H48.1429V8.96155L43 5.07145L37.8571 8.96155V16.6758ZM37 17.533V8.53298L43 4L49 8.53298V17.533H44.1209V12.489H41.8791V17.533H37Z" fill="#003087"/>
<rect x="0.5" y="0.5" width="52" height="52" rx="7.5" stroke="#EF2C2E"/>
<path d="M18.2473 41.8658L27 36.3108L35.7527 41.9389L33.4603 31.4136L41.171 24.3968L31.029 23.4466L27 13.5061L22.971 23.3735L12.829 24.3237L20.5397 31.4136L18.2473 41.8658ZM14.0099 48L17.4565 32.4651L6 22.0241L21.0901 20.6466L27 6L32.9099 20.6466L48 22.0241L36.5435 32.4651L39.9901 48L27 39.7518L14.0099 48Z" fill="#003087"/>
</svg>
