<svg width="53" height="53" viewBox="0 0 53 53" fill="none" xmlns="http://www.w3.org/2000/svg">
<rect x="0.5" y="0.5" width="52" height="52" rx="7.5" stroke="#EF2C2E"/>
<path d="M36.8 14L36 13.2941L42 8L48 13.2941L47.2 14L42 9.41178L36.8 14Z" fill="#003087"/>
<path d="M18.2473 40.8658L27 35.3108L35.7527 40.9389L33.4603 30.4136L41.171 23.3968L31.029 22.4466L27 12.5061L22.971 22.3735L12.829 23.3237L20.5397 30.4136L18.2473 40.8658ZM14.0099 47L17.4565 31.4651L6 21.0241L21.0901 19.6466L27 5L32.9099 19.6466L48 21.0241L36.5435 31.4651L39.9901 47L27 38.7518L14.0099 47Z" fill="#003087"/>
</svg>
