<svg width="19" height="19" viewBox="0 0 19 19" fill="none" xmlns="http://www.w3.org/2000/svg">
<path d="M11.4038 18.5538C11.1161 18.841 10.7595 18.9846 10.3342 18.9846C9.90882 18.9846 9.55256 18.841 9.26537 18.5538L0.465375 9.7538C0.320508 9.60893 0.206733 9.44218 0.12405 9.25355C0.04135 9.06493 0 8.86374 0 8.64998V1.49998C0 1.09101 0.147758 0.738775 0.443275 0.443275C0.738775 0.147759 1.09101 0 1.49998 0H8.64997C8.85637 0 9.05408 0.0402845 9.2431 0.120851C9.43213 0.201401 9.59596 0.309834 9.73458 0.44615L18.5346 9.26155C18.8282 9.55513 18.9765 9.91378 18.9797 10.3375C18.983 10.7612 18.841 11.1166 18.5538 11.4038L11.4038 18.5538ZM10.3303 17.5L17.4846 10.35L8.65427 1.49998H1.49998V8.64998L10.3303 17.5ZM3.99885 5.24995C4.34575 5.24995 4.64099 5.12853 4.88457 4.8857C5.12816 4.64287 5.24995 4.348 5.24995 4.0011C5.24995 3.6542 5.12853 3.35896 4.8857 3.11538C4.64287 2.87179 4.348 2.75 4.0011 2.75C3.6542 2.75 3.35896 2.87142 3.11537 3.11425C2.87179 3.35708 2.75 3.65195 2.75 3.99885C2.75 4.34575 2.87142 4.64099 3.11425 4.88457C3.35708 5.12816 3.65195 5.24995 3.99885 5.24995Z" fill="#444444"/>
</svg>
