<svg width="15" height="17" viewBox="0 0 15 17" fill="none" xmlns="http://www.w3.org/2000/svg">
<path d="M2.8077 16.8846C2.30898 16.8846 1.88302 16.7079 1.52982 16.3547C1.17661 16.0015 1 15.5756 1 15.0769V2.38458H0V0.884599H4.49997V0H10.5V0.884599H15V2.38458H14V15.0769C14 15.582 13.825 16.0096 13.475 16.3596C13.125 16.7096 12.6974 16.8846 12.1922 16.8846H2.8077ZM12.5 2.38458H2.49997V15.0769C2.49997 15.1666 2.52883 15.2403 2.58652 15.298C2.64422 15.3557 2.71795 15.3846 2.8077 15.3846H12.1922C12.2692 15.3846 12.3397 15.3525 12.4038 15.2884C12.4679 15.2243 12.5 15.1538 12.5 15.0769V2.38458ZM4.90385 13.3846H6.40382V4.38458H4.90385V13.3846ZM8.59613 13.3846H10.0961V4.38458H8.59613V13.3846Z" fill="#444444"/>
</svg>
