<svg width="53" height="53" viewBox="0 0 53 53" fill="none" xmlns="http://www.w3.org/2000/svg">
<path d="M6.864 39V37.24C7.632 37.0693 8.31467 36.696 8.912 36.12C9.53067 35.544 10.224 34.7333 10.992 33.688L14.832 28.376C13.7867 26.968 12.8373 25.7093 11.984 24.6C11.1307 23.4907 10.3413 22.456 9.616 21.496C9.25333 21.0053 8.944 20.5147 8.688 20.024C8.432 19.5333 8.21867 19.064 8.048 18.616C7.728 18.6373 7.42933 18.6587 7.152 18.68C6.896 18.68 6.64 18.6907 6.384 18.712V16.6H15.632V18.36L14.96 18.392C14.256 18.392 13.7867 18.4987 13.552 18.712C13.3387 18.9253 13.2853 19.2133 13.392 19.576C13.52 19.9173 13.7227 20.2907 14 20.696C14.4693 21.3147 14.9707 21.9973 15.504 22.744C16.0587 23.4693 16.6347 24.2267 17.232 25.016L19.888 21.304C20.3573 20.6213 20.7627 20.0667 21.104 19.64C21.4667 19.2133 21.7973 18.872 22.096 18.616C21.712 18.6373 21.2747 18.6587 20.784 18.68C20.2933 18.68 19.8987 18.6907 19.6 18.712V16.6H26.544V18.36C25.9893 18.424 25.4453 18.6267 24.912 18.968C24.4 19.3093 23.888 19.7573 23.376 20.312C22.8853 20.8667 22.3733 21.5173 21.84 22.264L18.608 26.744C19.312 27.6613 20.0053 28.568 20.688 29.464C21.3707 30.36 22.032 31.224 22.672 32.056C23.3333 32.8667 23.9413 33.6347 24.496 34.36C24.8587 34.8293 25.2 35.288 25.52 35.736C25.84 36.1627 26.1067 36.5787 26.32 36.984C26.6613 36.9413 26.9387 36.92 27.152 36.92C27.3653 36.8987 27.5893 36.888 27.824 36.888V39H18.832V37.24C19.6427 37.24 20.1653 37.144 20.4 36.952C20.6347 36.7387 20.6987 36.4613 20.592 36.12C20.4853 35.7573 20.2827 35.384 19.984 35C19.472 34.3387 18.896 33.6027 18.256 32.792C17.616 31.96 16.944 31.096 16.24 30.2C15.7493 30.8827 15.2587 31.576 14.768 32.28C14.2773 32.9627 13.7867 33.6453 13.296 34.328C12.8693 34.9253 12.5067 35.4267 12.208 35.832C11.9307 36.2373 11.6107 36.632 11.248 37.016C11.6533 36.9733 12.08 36.9413 12.528 36.92C12.9973 36.8987 13.3707 36.888 13.648 36.888V39H6.864ZM29.4765 39V37.24C30.0738 37.2187 30.5325 37.1227 30.8525 36.952C31.1725 36.76 31.3965 36.44 31.5245 35.992C31.6525 35.5227 31.7165 34.8827 31.7165 34.072V21.304C31.7165 20.7707 31.7272 20.2587 31.7485 19.768C31.7912 19.2773 31.8232 18.8933 31.8445 18.616C31.4818 18.6373 31.0658 18.6587 30.5965 18.68C30.1272 18.68 29.7538 18.6907 29.4765 18.712V16.6H37.9885V18.36C37.4125 18.3813 36.9538 18.488 36.6125 18.68C36.2925 18.8507 36.0685 19.16 35.9405 19.608C35.8125 20.056 35.7485 20.696 35.7485 21.528V34.264C35.7485 34.84 35.7378 35.3733 35.7165 35.864C35.6952 36.3333 35.6632 36.7067 35.6205 36.984L40.4845 36.952C41.7645 36.9307 42.7565 36.4933 43.4605 35.64C44.1645 34.7867 44.5165 33.464 44.5165 31.672H46.3085L46.1165 39H29.4765Z" fill="#003087"/>
<rect x="0.5" y="0.5" width="52" height="52" rx="7.5" stroke="#EF2C2E"/>
</svg>
